<?xml version="1.0" encoding="UTF-8" standalone="no"?>
<!-- Generator: Adobe Illustrator 19.0.0, SVG Export Plug-In . SVG Version: 6.00 Build 0)  -->

<svg
   xmlns:dc="http://purl.org/dc/elements/1.1/"
   xmlns:cc="http://creativecommons.org/ns#"
   xmlns:rdf="http://www.w3.org/1999/02/22-rdf-syntax-ns#"
   xmlns:svg="http://www.w3.org/2000/svg"
   xmlns="http://www.w3.org/2000/svg"
   xmlns:sodipodi="http://sodipodi.sourceforge.net/DTD/sodipodi-0.dtd"
   xmlns:inkscape="http://www.inkscape.org/namespaces/inkscape"
   version="1.1"
   id="Capa_1"
   x="0px"
   y="0px"
   viewBox="0 0 512 512"
   style="enable-background:new 0 0 512 512;"
   xml:space="preserve"
   sodipodi:docname="020-letter-qu.svg"
   inkscape:version="0.92.3 (2405546, 2018-03-11)"><metadata
   id="metadata3890"><rdf:RDF><cc:Work
       rdf:about=""><dc:format>image/svg+xml</dc:format><dc:type
         rdf:resource="http://purl.org/dc/dcmitype/StillImage" /><dc:title></dc:title></cc:Work></rdf:RDF></metadata><defs
   id="defs3888" /><sodipodi:namedview
   pagecolor="#ffffff"
   bordercolor="#666666"
   borderopacity="1"
   objecttolerance="10"
   gridtolerance="10"
   guidetolerance="10"
   inkscape:pageopacity="0"
   inkscape:pageshadow="2"
   inkscape:window-width="1857"
   inkscape:window-height="1018"
   id="namedview3886"
   showgrid="false"
   inkscape:zoom="1.1324757"
   inkscape:cx="180.73841"
   inkscape:cy="249.79286"
   inkscape:window-x="63"
   inkscape:window-y="34"
   inkscape:window-maximized="1"
   inkscape:current-layer="Capa_1" />
<g
   transform="matrix(1.25 0 0 -1.25 0 45)"
   id="g3853">
	<g
   id="g3851">
		<g
   id="g3849">
			<path
   style="fill:#3B88C3;"
   d="M409.6-328.089c0-25.134-20.378-45.511-45.511-45.511H45.511C20.378-373.6,0-353.222,0-328.089     V-9.511C0,15.622,20.378,36,45.511,36h318.578C389.222,36,409.6,15.622,409.6-9.511V-328.089z"
   id="path3845" />
			<path
   style="fill:#ffffff;stroke-width:0.86512321"
   d="m 177.78961,-202.6299 c 5.17777,11.60477 7.32327,25.0211 7.32327,39.06724 0,36.31181 -19.23342,70.191764 -57.38536,70.191764 -38.142421,0 -57.375833,-33.260524 -57.375833,-70.191764 0,-37.22713 18.623512,-70.2013 57.375833,-70.2013 7.01788,0 13.43624,0.92569 19.52929,2.1455 l -10.97495,10.67996 c -3.3662,3.05129 -5.80757,7.93318 -5.80757,12.20516 0,11.90063 8.24895,21.9698 20.75949,21.9698 4.27199,0 7.92367,-1.52607 11.59525,-3.96659 z m 3.65168,-59.81635 c -14.95192,-8.54396 -32.95514,-13.42585 -53.71463,-13.42585 -61.953205,0 -104.977515,49.13727 -104.977515,112.3103 0,63.47841 42.719787,112.310295 104.977515,112.310295 61.34243,0 104.98703,-50.357955 104.98703,-112.310295 0,-26.86208 -7.01788,-51.27326 -20.4541,-70.49717 l 17.40281,-14.96143 c 5.79806,-5.18729 10.67995,-10.06917 10.67995,-18.62351 0,-10.66957 -10.67995,-19.22391 -21.04499,-19.22391 -6.73239,0 -12.20516,2.75629 -20.45411,9.77417 z"
   id="path3847"
   inkscape:connector-curvature="0" />
		</g>
	</g>
</g>
<g
   id="g3855">
</g>
<g
   id="g3857">
</g>
<g
   id="g3859">
</g>
<g
   id="g3861">
</g>
<g
   id="g3863">
</g>
<g
   id="g3865">
</g>
<g
   id="g3867">
</g>
<g
   id="g3869">
</g>
<g
   id="g3871">
</g>
<g
   id="g3873">
</g>
<g
   id="g3875">
</g>
<g
   id="g3877">
</g>
<g
   id="g3879">
</g>
<g
   id="g3881">
</g>
<g
   id="g3883">
</g>
<path
   id="path4026-6"
   d="m 321.30116,240.41665 c 0,-12.08314 9.09733,-18.8489 19.48808,-18.8489 10.39091,0 19.48814,6.76645 19.48814,18.8489 v 84.35381 c 0,22.24034 16.01928,38.37677 38.97697,38.37677 21.99851,0 38.97702,-17.10316 38.97702,-38.37677 v -84.35381 c 0,-12.08314 9.10476,-18.8489 19.48814,-18.8489 10.39903,0 19.23115,6.76645 19.23115,18.8489 v 86.28728 c 0,40.60622 -37.82316,71.30462 -77.69631,71.30462 -40.36436,0 -77.95389,-30.21469 -77.95389,-71.30462 z"
   style="fill:#ffffff;stroke-width:0.68514049"
   inkscape:connector-curvature="0" /></svg>